<svg width="15.000000" height="14.000000" viewBox="0 0 15 14" fill="none" xmlns="http://www.w3.org/2000/svg" xmlns:xlink="http://www.w3.org/1999/xlink">
	<desc>
			Created with Pixso.
	</desc>
	<defs/>
	<path id="Vector" d="M10.26 1.21C10.47 1.36 10.61 1.59 10.65 1.85C10.7 2.11 10.65 2.38 10.51 2.6C10.37 2.82 10.15 2.97 9.91 3.02C9.66 3.07 9.41 3.01 9.2 2.86C8.34 2.23 7.3 1.93 6.25 2.01C5.21 2.08 4.22 2.53 3.43 3.27C2.65 4.01 2.13 5.02 1.95 6.12C1.76 7.21 1.93 8.35 2.42 9.33C2.91 10.32 3.69 11.1 4.65 11.56C5.61 12.02 6.68 12.12 7.7 11.85C8.71 11.58 9.62 10.96 10.26 10.08C10.91 9.2 11.26 8.11 11.26 7C11.26 6.73 11.36 6.48 11.53 6.29C11.71 6.1 11.95 6 12.2 6C12.44 6 12.68 6.1 12.86 6.29C13.04 6.48 13.14 6.73 13.14 7C13.13 8.56 12.64 10.08 11.74 11.31C10.83 12.54 9.57 13.41 8.15 13.79C6.72 14.16 5.22 14.02 3.88 13.39C2.54 12.75 1.44 11.65 0.76 10.27C0.07 8.89 -0.16 7.3 0.1 5.76C0.36 4.22 1.09 2.82 2.18 1.78C3.28 0.74 4.66 0.11 6.13 0.01C7.59 -0.09 9.05 0.33 10.26 1.21Z" fill="#FFFFFF" fill-opacity="1.000000" fill-rule="nonzero"/>
	<path id="Vector" d="M9.89 9.5C9.78 9.57 9.67 9.62 9.55 9.64C9.42 9.67 9.3 9.66 9.18 9.64C9.06 9.61 8.94 9.55 8.84 9.48C8.74 9.41 8.66 9.31 8.59 9.2C8.52 9.09 8.48 8.96 8.46 8.83C8.43 8.71 8.44 8.57 8.46 8.45C8.49 8.32 8.54 8.2 8.61 8.09C8.68 7.98 8.77 7.89 8.88 7.82L12.14 5.59C12.35 5.45 12.6 5.41 12.84 5.47C13.09 5.52 13.3 5.68 13.43 5.9C13.56 6.12 13.61 6.39 13.56 6.65C13.5 6.91 13.36 7.13 13.15 7.28L9.89 9.5Z" fill="#FFFFFF" fill-opacity="1.000000" fill-rule="nonzero"/>
	<path id="Vector" d="M14.92 9.41C15.02 9.65 15.02 9.92 14.93 10.16C14.84 10.41 14.66 10.6 14.44 10.71C14.21 10.82 13.96 10.82 13.73 10.73C13.5 10.64 13.31 10.46 13.21 10.22L11.79 6.84C11.74 6.72 11.71 6.59 11.7 6.46C11.7 6.33 11.72 6.19 11.76 6.07C11.8 5.94 11.87 5.83 11.96 5.73C12.04 5.63 12.14 5.56 12.26 5.5C12.37 5.45 12.5 5.42 12.62 5.42C12.75 5.41 12.87 5.44 12.99 5.49C13.1 5.53 13.21 5.61 13.3 5.7C13.39 5.79 13.46 5.9 13.5 6.03L14.92 9.41Z" fill="#FFFFFF" fill-opacity="1.000000" fill-rule="nonzero"/>
</svg>
