<?xml version="1.0" standalone="no"?>
<!DOCTYPE svg PUBLIC "-//W3C//DTD SVG 20010904//EN"
 "http://www.w3.org/TR/2001/REC-SVG-20010904/DTD/svg10.dtd">
<svg version="1.0" xmlns="http://www.w3.org/2000/svg"
 width="457.000000pt" height="457.000000pt" viewBox="0 0 457.000000 457.000000"
 preserveAspectRatio="xMidYMid meet">

<g transform="translate(0.000000,457.000000) scale(0.100000,-0.100000)"
fill="#000000" stroke="none">
<path d="M2210 4221 c0 -7 -24 -11 -64 -11 -38 0 -70 -5 -78 -12 -7 -7 -35
-14 -63 -14 -62 -2 -128 -16 -179 -37 -25 -11 -66 -17 -118 -17 -66 0 -77 -2
-66 -13 7 -8 20 -16 28 -19 11 -4 7 -9 -12 -18 -16 -7 -28 -17 -28 -22 0 -4
-11 -8 -25 -8 -14 0 -25 -4 -25 -10 0 -5 -11 -10 -25 -10 -14 0 -25 -4 -25
-10 0 -5 -6 -10 -13 -10 -8 0 -22 -9 -32 -20 -10 -11 -24 -20 -32 -20 -7 0
-13 -4 -13 -10 0 -5 -7 -10 -15 -10 -8 0 -15 -4 -15 -10 0 -5 -7 -10 -15 -10
-8 0 -15 -4 -15 -10 0 -5 -5 -10 -11 -10 -6 0 -16 -6 -23 -12 -7 -7 -30 -26
-50 -42 -20 -15 -36 -35 -36 -43 0 -8 -5 -11 -11 -8 -11 7 -59 -32 -59 -48 0
-5 19 -6 45 -3 l45 7 -12 -28 c-6 -15 -21 -37 -33 -48 -54 -51 -94 -159 -94
-255 l-1 -45 21 33 c12 17 22 32 24 32 7 0 -25 -104 -34 -113 -6 -6 -11 -17
-11 -25 0 -12 3 -12 16 -1 13 11 15 9 10 -12 -18 -87 -28 -162 -23 -180 3 -11
-1 -46 -9 -77 -16 -61 -15 -108 2 -105 7 1 7 -15 0 -53 -7 -41 -6 -58 3 -67
10 -9 11 -6 6 18 -5 28 -5 28 5 6 6 -14 9 -49 6 -78 -4 -40 -2 -52 7 -48 7 4
4 0 -5 -8 -10 -8 -15 -17 -11 -21 4 -3 -2 -13 -13 -22 -10 -8 -13 -13 -6 -9 7
4 19 1 27 -5 8 -7 15 -9 15 -5 0 4 7 1 17 -6 15 -13 38 -59 107 -214 35 -78
86 -130 150 -152 41 -14 78 -17 191 -14 182 4 204 5 200 11 -2 3 12 10 30 16
24 8 33 8 32 0 -1 -6 4 -10 11 -8 9 1 8 -7 -4 -30 -16 -30 -16 -32 -1 -19 15
12 17 11 18 -5 0 -14 2 -15 6 -4 3 8 16 27 29 42 12 15 32 53 44 84 30 80 92
305 86 311 -3 3 -10 -16 -17 -41 -6 -26 -13 -45 -16 -43 -6 7 38 170 49 185 6
7 33 12 65 12 46 0 54 -3 49 -16 -3 -8 -2 -12 3 -9 12 7 24 -31 15 -47 -4 -7
-3 -9 2 -5 7 7 47 -93 40 -101 -3 -2 -16 29 -30 72 -4 10 -8 17 -11 14 -15
-14 116 -334 161 -393 13 -17 30 -46 38 -65 8 -19 15 -29 16 -22 0 7 -6 27
-14 45 l-13 33 38 -19 c31 -15 45 -17 67 -9 16 5 42 7 58 4 l29 -6 -25 -7
c-15 -4 14 -7 70 -8 90 0 96 1 113 24 l18 25 -138 2 c-170 1 -160 0 -175 18
-11 12 -11 12 2 3 10 -7 74 -10 190 -9 151 2 183 6 236 25 123 44 169 124 210
361 9 52 17 97 19 98 2 2 17 -4 34 -14 34 -20 47 -68 36 -135 -5 -27 -4 -39 3
-35 6 3 9 -2 7 -11 -1 -10 -8 -17 -14 -15 -17 3 -13 -34 5 -52 12 -12 12 -16
2 -16 -10 0 -10 -2 1 -9 7 -5 10 -14 7 -20 -4 -6 -12 -9 -17 -5 -6 3 -5 -3 2
-14 10 -15 10 -27 2 -44 -7 -17 -8 -30 -1 -43 8 -13 7 -16 -1 -11 -6 4 -11 2
-11 -5 0 -7 -8 -2 -19 10 l-18 21 0 -26 c0 -16 2 -21 7 -14 5 8 10 9 14 2 4
-6 13 -9 20 -6 8 3 17 0 22 -7 4 -8 3 -10 -4 -5 -16 10 -15 1 1 -12 10 -8 13
-5 15 12 1 13 6 34 10 47 9 24 9 24 31 -11 34 -57 29 -77 -33 -128 -14 -11
-16 -9 -16 19 0 48 -7 31 -13 -33 -5 -54 -5 -56 15 -49 12 4 23 16 24 26 1 9
16 35 33 56 17 21 31 43 31 48 0 6 4 11 10 11 5 0 6 7 3 17 -5 12 -3 14 7 8 8
-5 11 -3 8 6 -3 8 -11 13 -17 11 -6 -1 -11 2 -11 8 0 5 4 10 9 10 7 0 8 34 3
63 -1 4 -15 13 -32 18 -35 13 -37 27 -16 107 18 66 62 142 83 142 13 0 13 3 3
15 -7 8 -17 12 -24 9 -6 -3 -2 2 9 11 20 17 19 17 -7 11 -24 -5 -28 -3 -34 19
-4 16 0 34 10 49 38 59 43 232 10 313 -9 19 -13 38 -10 41 3 2 10 -6 15 -19
15 -38 12 1 -4 56 -9 27 -26 108 -40 180 -13 71 -28 144 -33 160 -14 45 -45
105 -54 105 -4 0 -8 9 -8 20 0 11 -4 20 -9 20 -5 0 -13 10 -17 23 -4 12 -20
35 -35 51 -16 17 -29 33 -29 38 0 4 -7 8 -14 8 -15 0 -66 42 -66 54 0 13 -38
43 -80 63 -25 11 -57 34 -71 51 -15 16 -41 36 -58 43 -17 8 -31 17 -31 21 0 5
-5 8 -11 8 -5 0 -7 -5 -4 -11 4 -6 -2 -5 -13 2 -12 7 -19 17 -16 21 3 4 -1 5
-9 2 -8 -3 -17 2 -20 10 -4 9 -12 16 -19 16 -9 0 -8 -3 2 -10 8 -5 11 -10 5
-10 -13 0 -43 20 -30 20 13 0 -17 20 -30 20 -5 0 -3 -5 5 -10 11 -7 12 -10 2
-10 -8 0 -16 8 -19 18 -2 11 -22 23 -49 31 -24 7 -44 17 -44 22 0 5 -8 9 -17
9 -16 0 -68 15 -108 31 -11 4 -40 11 -65 14 -25 3 -64 8 -87 11 -28 4 -43 2
-43 -5z m280 -127 c0 -2 -9 0 -20 6 -11 6 -20 13 -20 16 0 2 9 0 20 -6 11 -6
20 -13 20 -16z m155 -32 c-3 -3 -11 0 -18 7 -9 10 -8 11 6 5 10 -3 15 -9 12
-12z m54 -29 c6 -10 11 -14 11 -10 0 4 9 3 21 -4 14 -7 18 -14 11 -21 -6 -6
-16 -7 -24 -2 -13 9 -18 10 -40 13 -9 1 -8 4 2 11 13 9 13 11 0 20 -9 6 -10
10 -3 10 7 0 17 -8 22 -17z m-27 -74 l33 -32 -32 22 c-18 12 -35 26 -38 31
-12 19 4 10 37 -21z m-137 -79 c16 -17 16 -20 3 -15 -9 4 -19 13 -22 21 -7 19
-2 18 19 -6z m-159 -148 c-3 -2 -20 -8 -38 -13 -28 -7 -26 -8 13 -3 110 12
248 5 319 -16 38 -11 76 -20 83 -19 6 1 26 1 42 -1 26 -1 27 -3 10 -10 -18 -8
-17 -9 8 -9 18 -1 27 4 27 14 0 8 4 15 10 15 5 0 7 -7 4 -15 -5 -11 1 -15 17
-15 20 0 21 2 9 11 -12 9 -12 10 3 5 10 -3 23 -6 28 -6 6 0 7 -5 3 -12 -4 -7
-3 -8 5 -4 16 10 43 -13 37 -31 -3 -7 6 -20 20 -29 18 -12 23 -22 19 -38 -4
-14 -3 -17 3 -8 6 8 19 -10 44 -60 20 -40 38 -84 41 -98 13 -62 17 -74 29 -82
7 -4 10 -8 5 -8 -4 0 -1 -13 8 -30 19 -37 19 -41 -2 -33 -15 6 -16 5 -3 -9 8
-9 19 -13 24 -11 5 3 6 0 4 -8 -3 -8 2 -19 10 -25 14 -10 16 -17 28 -107 4
-26 11 -50 15 -53 12 -7 11 -24 -2 -24 -5 0 -7 5 -3 12 5 7 2 9 -7 6 -8 -3
-55 0 -105 7 -50 7 -134 16 -187 20 -53 4 -104 13 -113 19 -11 9 -31 10 -63 5
-25 -4 -93 -13 -151 -18 -58 -6 -142 -20 -187 -31 -179 -43 -240 -45 -464 -20
-219 24 -327 23 -489 -4 -47 -8 -109 -18 -139 -21 -53 -7 -54 -7 -49 16 13 58
31 126 40 144 5 12 10 28 12 37 1 9 7 22 14 30 6 8 10 18 7 21 -3 4 -2 5 1 2
11 -7 35 24 37 47 1 20 61 87 78 88 3 0 10 -12 16 -27 11 -28 11 -27 12 12 1
41 15 74 23 59 3 -5 8 -22 12 -39 8 -32 33 -65 49 -65 6 0 2 9 -8 20 -26 29
-21 121 6 105 5 -4 9 1 9 10 0 9 4 14 9 11 5 -4 12 0 15 6 4 7 4 2 1 -12 -18
-83 -17 -85 11 -30 22 42 48 70 109 117 44 34 86 60 93 58 7 -3 11 -1 8 4 -7
11 41 44 54 36 5 -3 12 0 16 6 5 8 3 9 -7 4 -8 -5 -11 -4 -6 0 4 5 20 11 35
13 14 2 32 8 40 14 10 9 138 25 249 32 11 0 19 4 17 7 -6 10 39 26 73 25 17
-1 30 1 28 4 -2 3 17 5 41 6 24 0 42 -1 40 -4z m441 -38 c-3 -3 -12 -4 -19 -1
-8 3 -5 6 6 6 11 1 17 -2 13 -5z m-1599 -74 c-7 -10 -14 -17 -17 -15 -4 4 18
35 25 35 2 0 -1 -9 -8 -20z m-42 -406 c-4 -20 -10 -34 -12 -31 -3 3 -2 21 2
41 3 21 9 35 11 32 3 -3 2 -21 -1 -42z m2084 -212 c0 -8 -1 -13 -3 -11 -1 2
-9 12 -16 22 -12 15 -12 17 3 11 9 -3 16 -13 16 -22z m-72 -34 c18 -18 15 -23
-14 -26 -33 -3 -45 5 -37 23 6 18 34 20 51 3z m-1953 -48 c-24 -19 -42 -27
-48 -21 -14 14 0 30 36 40 51 15 52 13 12 -19z m2041 11 c-4 -5 -2 -11 3 -13
5 -1 12 -16 16 -33 l6 -30 -20 35 c-17 31 -19 50 -5 50 3 0 3 -4 0 -9z m-2075
-71 c5 0 9 -4 9 -10 0 -16 -26 -12 -41 7 -12 15 -12 16 4 10 10 -4 23 -7 28
-7z m16 -57 c1 -24 0 -25 -6 -8 -7 17 -6 35 2 35 2 0 3 -12 4 -27z m1900 -15
c-3 -7 -5 -2 -5 12 0 14 2 19 5 13 2 -7 2 -19 0 -25z m-10 -65 c-3 -10 -5 -4
-5 12 0 17 2 24 5 18 2 -7 2 -21 0 -30z m-1060 -35 c-3 -8 -6 -5 -6 6 -1 11 2
17 5 13 3 -3 4 -12 1 -19z m1050 -30 c-3 -7 -5 -2 -5 12 0 14 2 19 5 13 2 -7
2 -19 0 -25z m130 -10 c-3 -7 -5 -2 -5 12 0 14 2 19 5 13 2 -7 2 -19 0 -25z
m-1190 0 c-3 -8 -6 -5 -6 6 -1 11 2 17 5 13 3 -3 4 -12 1 -19z m-22 -78 c-9
-28 -19 -50 -21 -48 -2 2 4 27 13 56 9 28 19 50 21 47 2 -2 -4 -27 -13 -55z
m1072 38 c-3 -8 -6 -5 -6 6 -1 11 2 17 5 13 3 -3 4 -12 1 -19z m-10 -40 c-3
-8 -6 -5 -6 6 -1 11 2 17 5 13 3 -3 4 -12 1 -19z m-773 -38 l7 -25 -15 25
c-17 28 -21 50 -7 35 5 -6 12 -21 15 -35z m921 11 c-8 -14 -25 -14 -25 0 0 5
5 7 10 4 6 -3 10 -1 10 6 0 7 3 10 6 6 3 -3 3 -10 -1 -16z m-1927 -76 c0 -5
-6 4 -13 20 -8 17 -14 37 -14 45 0 8 7 -1 14 -20 7 -19 13 -39 13 -45z m676
-4 c-9 -23 -18 -40 -20 -38 -2 2 4 22 13 45 9 23 18 40 20 38 2 -2 -4 -22 -13
-45z m-654 -46 c0 -5 -5 -3 -10 5 -5 8 -10 20 -10 25 0 6 5 3 10 -5 5 -8 10
-19 10 -25z m1050 -5 c6 -11 8 -20 6 -20 -3 0 -10 9 -16 20 -6 11 -8 20 -6 20
3 0 10 -9 16 -20z m941 1 c7 11 9 10 9 -4 0 -20 -22 -19 -26 1 -2 9 -1 9 3 1
4 -8 8 -7 14 2z m-1385 -46 c-36 -47 -41 -44 -9 5 15 22 29 38 31 35 3 -2 -7
-20 -22 -40z m490 -17 l29 -33 -32 29 c-31 28 -38 36 -30 36 2 0 16 -15 33
-32z m-482 -33 c-9 -14 -18 -25 -21 -25 -5 0 5 18 20 38 17 22 18 13 1 -13z
m571 -55 c13 -6 15 -9 5 -9 -8 0 -22 4 -30 9 -18 12 -2 12 25 0z"/>
<path d="M2717 4009 c7 -7 15 -10 18 -7 3 3 -2 9 -12 12 -14 6 -15 5 -6 -5z"/>
<path d="M2258 3703 c6 -2 18 -2 25 0 6 3 1 5 -13 5 -14 0 -19 -2 -12 -5z"/>
<path d="M3118 3033 c6 -2 18 -2 25 0 6 3 1 5 -13 5 -14 0 -19 -2 -12 -5z"/>
<path d="M2101 2713 c-1 -6 -4 -20 -7 -30 -5 -17 -5 -17 6 0 6 10 9 23 6 30
-3 9 -5 9 -5 0z"/>
<path d="M3373 2663 c-19 -7 -93 -103 -93 -121 0 -11 3 -12 13 -3 8 6 18 7 23
3 4 -4 3 0 -3 8 -9 12 -4 23 21 52 28 32 32 34 33 16 1 -12 7 -25 14 -29 9 -5
10 -32 5 -100 -10 -132 1 -106 15 35 9 98 9 120 -2 131 -8 7 -20 11 -26 8z"/>
<path d="M1120 2570 c0 -49 27 -171 47 -214 l14 -31 -6 45 c-3 25 -8 55 -12
68 -3 12 -1 22 5 22 11 0 42 -60 42 -82 1 -30 28 41 34 90 6 48 5 53 -16 61
-13 5 -34 21 -48 36 -14 15 -33 31 -42 36 -16 9 -18 5 -18 -31z"/>
<path d="M3422 2550 c0 -14 2 -19 5 -12 2 6 2 18 0 25 -3 6 -5 1 -5 -13z"/>
<path d="M3362 2520 c0 -14 2 -19 5 -12 2 6 2 18 0 25 -3 6 -5 1 -5 -13z"/>
<path d="M3166 2424 c-4 -15 -3 -30 1 -35 4 -4 9 8 10 27 2 41 -2 44 -11 8z"/>
<path d="M3396 2368 c-8 -58 -46 -207 -77 -295 -10 -31 -17 -58 -15 -60 5 -6
42 103 70 207 25 96 43 200 34 200 -3 0 -8 -24 -12 -52z"/>
<path d="M1244 2350 c1 -34 -6 -69 -17 -94 -14 -27 -16 -41 -8 -49 6 -6 11 -7
11 -3 0 5 7 3 15 -4 8 -7 15 -24 15 -38 0 -25 0 -25 -22 -6 l-22 19 21 -30
c11 -16 25 -39 32 -50 l13 -20 -7 20 c-4 11 -7 67 -6 125 0 59 -6 123 -13 145
l-13 40 1 -55z"/>
<path d="M2798 2253 c7 -3 16 -2 19 1 4 3 -2 6 -13 5 -11 0 -14 -3 -6 -6z"/>
<path d="M3136 2213 c-6 -14 -5 -15 5 -6 7 7 10 15 7 18 -3 3 -9 -2 -12 -12z"/>
<path d="M1913 2165 c0 -22 2 -30 4 -17 2 12 2 30 0 40 -3 9 -5 -1 -4 -23z"/>
<path d="M2035 2190 c3 -5 8 -10 11 -10 2 0 4 5 4 10 0 6 -5 10 -11 10 -5 0
-7 -4 -4 -10z"/>
<path d="M2280 2196 c0 -2 7 -7 16 -10 8 -3 12 -2 9 4 -6 10 -25 14 -25 6z"/>
<path d="M1995 2178 c-11 -31 -13 -68 -4 -68 6 0 8 -4 5 -8 -3 -5 17 -8 43 -8
27 1 47 5 44 9 -2 4 7 5 21 1 42 -10 30 5 -20 26 -49 21 -77 44 -67 54 4 3 1
6 -6 6 -6 0 -14 -6 -16 -12z"/>
<path d="M2336 2181 c-3 -5 1 -12 10 -15 22 -8 25 -4 9 11 -8 7 -16 9 -19 4z"/>
<path d="M2239 2162 c-14 -9 -24 -22 -22 -28 2 -6 -6 -14 -17 -17 -20 -5 -21
-7 -6 -35 8 -16 12 -33 8 -38 -4 -5 3 0 16 10 25 22 28 31 8 23 -10 -4 -12 0
-8 15 2 11 8 16 11 11 10 -15 53 -8 97 15 23 12 44 19 47 16 2 -3 7 2 11 11 3
10 2 14 -5 10 -5 -4 -22 -2 -37 3 -54 20 -77 21 -103 4z m25 -7 c-10 -8 -23
-15 -28 -15 -6 0 -1 7 10 15 10 8 23 15 28 15 6 0 1 -7 -10 -15z"/>
<path d="M2451 2164 c0 -11 3 -14 6 -6 3 7 2 16 -1 19 -3 4 -6 -2 -5 -13z"/>
<path d="M2095 2161 c-3 -5 -2 -12 3 -15 5 -3 9 1 9 9 0 17 -3 19 -12 6z"/>
<path d="M2437 2117 c-5 -19 -13 -27 -22 -23 -10 3 -12 0 -8 -11 5 -12 3 -14
-7 -8 -8 5 -11 4 -7 -2 9 -14 -19 -21 -79 -18 l-49 2 32 -13 c62 -26 162 29
151 82 -3 15 -6 13 -11 -9z"/>
<path d="M2326 2105 c-25 -19 -9 -19 24 0 14 8 19 14 10 14 -8 0 -24 -6 -34
-14z"/>
<path d="M1952 2068 c20 -19 39 -28 62 -28 40 0 68 25 37 33 -14 3 -18 1 -14
-9 3 -8 0 -14 -6 -14 -6 0 -11 5 -11 11 0 8 -4 8 -14 0 -11 -9 -15 -8 -20 5
-3 8 -12 14 -19 11 -6 -2 -19 1 -28 7 -8 6 -2 -1 13 -16z"/>
<path d="M1202 2070 c0 -14 2 -19 5 -12 2 6 2 18 0 25 -3 6 -5 1 -5 -13z"/>
<path d="M2155 2050 c-3 -5 -2 -10 4 -10 5 0 13 5 16 10 3 6 2 10 -4 10 -5 0
-13 -4 -16 -10z"/>
<path d="M3160 1988 c0 -7 -3 -31 -7 -53 -5 -34 -4 -38 8 -28 8 6 32 16 55 22
22 6 49 21 60 33 l19 21 -25 -15 c-27 -17 -56 -11 -79 16 -16 19 -31 21 -31 4z
m40 -52 c-36 -11 -41 -7 -34 21 6 20 7 20 35 5 l29 -17 -30 -9z"/>
<path d="M2196 1785 c-11 -8 -15 -15 -9 -15 6 0 16 7 23 15 16 19 11 19 -14 0z"/>
<path d="M2206 1765 c-11 -8 -15 -15 -10 -15 6 0 15 5 21 11 8 8 16 8 30 -1
17 -11 17 -11 -1 -6 -10 4 -24 2 -31 -4 -9 -7 -21 -7 -39 0 -34 13 -46 13 -26
0 17 -11 19 -11 -67 -13 -28 -1 -49 -5 -47 -9 7 -10 -31 -19 -51 -12 -13 5
-16 4 -11 -4 4 -7 1 -13 -6 -13 -46 -4 -68 -10 -108 -28 -48 -21 -39 -26 23
-12 24 6 37 5 37 -1 0 -6 6 -6 15 2 8 6 20 8 26 4 7 -4 9 -3 5 4 -8 14 55 35
79 26 13 -5 16 -4 11 4 -5 8 2 12 23 12 16 0 32 -4 35 -9 8 -12 94 -20 126
-11 18 5 33 4 40 -3 10 -9 11 -9 5 2 -6 11 1 12 36 8 24 -3 66 -8 92 -10 27
-3 51 -8 55 -12 4 -4 -9 -5 -30 -2 -26 4 -49 -1 -80 -16 -30 -15 -38 -23 -25
-25 10 -2 25 2 33 9 12 10 13 9 7 -7 -6 -17 -5 -18 12 -4 17 14 18 13 12 -2
-3 -10 -4 -18 -2 -18 10 0 90 45 96 53 4 5 32 8 63 5 32 -3 51 -1 44 3 -7 5
-22 9 -34 9 -11 0 -24 3 -28 7 -7 7 -42 11 -106 13 -18 0 -21 3 -11 9 9 6 10
11 2 15 -6 4 -15 4 -21 1 -14 -9 -52 14 -44 27 5 7 11 6 19 -5 7 -9 15 -14 18
-10 4 3 -1 12 -10 19 -14 10 -23 9 -44 -2 -15 -7 -30 -10 -33 -6 -4 3 -11 0
-16 -8 -8 -13 -10 -12 -10 3 0 10 -12 22 -26 27 -30 12 -25 13 -48 -5z"/>
<path d="M2038 1758 c5 -5 16 -8 23 -6 8 3 3 7 -10 11 -17 4 -21 3 -13 -5z"/>
<path d="M2350 1670 c-9 -6 -10 -10 -3 -10 6 0 15 5 18 10 8 12 4 12 -15 0z"/>
<path d="M2250 1580 c0 -13 11 -13 30 0 12 8 11 10 -7 10 -13 0 -23 -4 -23
-10z"/>
<path d="M2109 1531 c-20 -16 -36 -67 -18 -56 5 4 7 10 4 15 -3 5 3 8 14 7 15
-1 17 -4 9 -14 -8 -10 -7 -12 6 -7 9 3 16 10 16 14 0 5 9 6 20 3 10 -3 40 2
66 11 26 9 58 16 71 16 42 0 24 18 -24 25 -71 9 -143 3 -164 -14z"/>
<path d="M3017 1523 c-22 -40 -106 -118 -222 -205 -55 -42 -129 -101 -165
-133 -73 -66 -175 -135 -199 -135 -9 0 4 9 28 20 24 11 41 23 38 26 -3 3 -14
1 -25 -5 -27 -15 -100 -30 -107 -22 -9 8 -66 10 -61 2 3 -4 -12 -7 -32 -8 -20
0 -55 -3 -77 -5 -22 -3 -46 0 -52 5 -9 6 -13 6 -13 -2 0 -6 -10 -11 -22 -10
-22 0 -22 1 -3 9 13 6 4 8 -30 4 -32 -3 -65 0 -92 10 -27 9 -43 11 -45 4 -5
-15 -283 197 -365 279 -40 40 -73 68 -73 63 0 -6 5 -10 10 -10 6 0 10 -5 10
-11 0 -7 9 -19 20 -29 19 -16 17 -18 -63 -57 -45 -22 -106 -51 -134 -64 -29
-13 -53 -27 -53 -31 0 -4 30 7 68 23 189 86 192 87 192 71 0 -10 -108 -61
-235 -113 -118 -48 -196 -99 -440 -289 -39 -30 -64 -47 -56 -37 20 25 231 211
264 232 43 28 26 28 -49 -1 -38 -14 -127 -44 -199 -66 -71 -22 -170 -60 -218
-85 -49 -24 -86 -39 -82 -34 9 15 9 15 -96 -27 -223 -91 -286 -163 -342 -392
-38 -153 -37 -150 -30 -70 3 41 16 125 28 185 38 183 37 175 21 132 -9 -21
-24 -50 -34 -65 -11 -15 -34 -55 -51 -89 l-31 -62 0 -266 0 -265 2285 0 2285
0 0 313 0 312 -43 27 c-73 46 -219 115 -312 148 -76 26 -364 110 -380 110 -12
0 -4 -24 12 -36 36 -25 2 -26 -47 0 -28 15 -56 24 -62 20 -7 -4 -8 -3 -4 4 7
12 -2 15 -54 16 -19 1 -24 6 -23 21 1 11 0 14 -3 8 -7 -17 -34 -16 -58 2 -11
8 -26 15 -35 15 -8 0 -21 7 -30 15 -9 8 -26 23 -38 34 l-22 20 -41 -47 c-34
-39 -40 -43 -35 -22 3 14 9 50 12 81 5 54 4 57 -33 99 -36 40 -37 43 -14 37
72 -19 65 -14 -30 21 -58 21 -119 46 -137 55 -18 9 -43 17 -56 17 -12 0 -27 4
-32 9 -20 18 -63 21 -69 6 -4 -12 14 -25 70 -51 91 -44 108 -66 102 -134 -7
-73 -59 -168 -146 -266 -69 -79 -119 -121 -97 -83 5 8 4 11 -1 6 -5 -5 -9 -14
-9 -20 0 -17 -138 -129 -224 -181 -79 -48 -206 -106 -317 -145 -66 -23 -88
-26 -79 -11 3 6 -1 7 -9 4 -9 -3 -13 -11 -9 -17 4 -6 0 -8 -10 -4 -10 3 -17 2
-17 -2 0 -5 -35 -17 -77 -27 -114 -27 -298 -25 -380 3 -131 46 -195 100 -246
213 -27 59 -30 74 -29 165 1 106 19 210 50 291 l20 49 12 -43 c7 -23 15 -40
17 -38 3 2 -18 76 -46 164 -28 87 -51 167 -51 176 0 12 22 -2 70 -45 59 -53
68 -65 57 -78 -11 -14 -10 -14 6 -2 12 9 17 10 17 2 0 -7 4 -10 9 -7 9 6 74
-48 71 -59 -1 -4 2 -10 6 -13 4 -4 4 -1 -1 7 -5 9 -3 12 6 9 8 -3 13 -11 11
-17 -1 -7 2 -10 8 -6 5 3 10 1 10 -4 0 -6 5 -11 11 -11 13 0 54 -31 59 -45 3
-5 10 -9 17 -7 18 4 16 -9 -3 -23 -15 -10 -14 -12 7 -10 13 1 23 7 22 13 -2 6
10 3 26 -6 16 -9 27 -21 24 -26 -3 -5 -1 -6 5 -2 6 4 36 -1 67 -9 33 -10 92
-17 143 -16 62 0 82 -3 72 -11 -12 -8 -11 -9 3 -4 10 3 28 6 40 6 18 0 20 2 7
11 -11 8 -8 9 13 4 16 -3 26 -2 24 3 -6 8 91 48 106 44 5 -2 6 1 3 6 -3 5 14
18 37 30 23 12 64 43 92 71 27 27 53 47 56 45 4 -2 14 7 23 21 9 14 22 24 29
22 6 -1 11 4 9 12 -2 9 4 12 19 8 11 -3 18 -3 15 0 -3 3 -1 14 5 25 6 11 13
18 15 15 2 -2 25 16 51 40 26 23 54 42 62 40 9 -1 16 3 16 10 0 18 108 123
119 116 5 -3 6 -1 2 6 -4 6 -2 19 5 27 6 8 9 17 6 20 -3 3 -12 -7 -20 -23z
m285 -342 c56 -35 98 -89 98 -127 0 -14 -2 -16 -9 -6 -4 8 -11 13 -15 13 -18
-3 -29 0 -23 5 10 10 -27 41 -43 35 -13 -4 -13 -3 0 14 14 17 13 17 -9 10 -16
-5 -21 -4 -17 4 4 6 1 11 -7 11 -14 0 -32 27 -29 43 1 4 -1 6 -6 5 -4 -2 -21
9 -37 25 l-30 28 35 -12 c19 -7 61 -28 92 -48z m-1947 -149 c-56 -53 -148
-146 -205 -207 -118 -125 -114 -112 11 31 72 83 274 273 289 273 3 0 -40 -43
-95 -97z m665 6 c0 -11 -7 -10 -40 7 -40 21 -38 24 5 11 19 -6 35 -14 35 -18z
m384 3 c3 -4 -4 -7 -14 -6 -27 2 -33 10 -10 12 11 1 22 -2 24 -6z m-67 -7 c-3
-3 -12 -4 -19 -1 -8 3 -5 6 6 6 11 1 17 -2 13 -5z"/>
<path d="M2260 1506 c0 -2 7 -6 15 -10 8 -3 15 -1 15 4 0 6 -7 10 -15 10 -8 0
-15 -2 -15 -4z"/>
<path d="M2305 1500 c-3 -5 -1 -10 4 -10 6 0 11 5 11 10 0 6 -2 10 -4 10 -3 0
-8 -4 -11 -10z"/>
<path d="M3005 1461 c-3 -5 -1 -12 5 -16 5 -3 10 1 10 9 0 18 -6 21 -15 7z"/>
<path d="M3042 1370 c0 -14 2 -19 5 -12 2 6 2 18 0 25 -3 6 -5 1 -5 -13z"/>
<path d="M2733 1205 c0 -7 6 -11 14 -8 7 3 13 6 13 8 0 2 -6 5 -13 8 -8 3 -14
-1 -14 -8z"/>
<path d="M1240 1200 c-8 -5 -10 -10 -5 -10 6 0 17 5 25 10 8 5 11 10 5 10 -5
0 -17 -5 -25 -10z"/>
<path d="M2575 1170 c-4 -6 -11 -7 -17 -4 -6 4 -8 2 -5 -3 8 -12 -42 -49 -60
-45 -18 4 -16 -5 2 -11 8 -4 32 10 57 33 24 22 40 40 36 40 -4 0 -10 -5 -13
-10z"/>
<path d="M1130 1161 c0 -5 -17 -11 -37 -14 -58 -7 -167 -37 -177 -47 -6 -6
-24 -10 -41 -10 -16 0 -57 -12 -90 -26 -65 -28 -234 -80 -355 -109 -82 -20
-227 -72 -235 -85 -2 -4 23 4 58 18 34 13 138 44 232 67 93 23 187 49 207 58
48 20 387 120 413 121 11 1 34 9 50 18 l30 17 -27 1 c-16 0 -28 -4 -28 -9z"/>
<path d="M3012 1060 c0 -19 2 -27 5 -17 2 9 2 25 0 35 -3 9 -5 1 -5 -18z"/>
<path d="M2519 1063 c-1 -5 -1 -12 0 -17 1 -5 -5 -6 -14 -2 -9 3 -13 2 -10 -3
3 -6 14 -9 25 -8 13 1 16 5 9 13 -7 8 -6 14 3 17 10 4 10 6 1 6 -7 1 -14 -2
-14 -6z"/>
<path d="M3000 995 c0 -13 -11 -59 -25 -102 -29 -91 -27 -107 3 -28 22 56 40
155 28 155 -3 0 -6 -11 -6 -25z"/>
<path d="M3820 1012 c8 -5 26 -13 40 -16 17 -5 20 -4 10 2 -8 5 -26 13 -40 16
-17 5 -20 4 -10 -2z"/>
<path d="M2384 989 c-3 -6 0 -15 7 -20 24 -15 34 -10 13 7 -18 14 -18 15 6 9
19 -5 22 -4 10 4 -19 14 -27 14 -36 0z"/>
<path d="M3910 975 c33 -19 50 -18 26 0 -11 8 -27 15 -35 15 -10 -1 -7 -6 9
-15z"/>
<path d="M1665 950 c31 -149 165 -594 173 -572 2 6 -19 83 -47 173 -27 90 -66
223 -86 294 -37 128 -54 174 -40 105z"/>
<path d="M4040 923 c120 -43 180 -61 180 -55 0 8 -160 62 -181 61 -11 0 -11
-2 1 -6z"/>
<path d="M4235 862 c6 -5 35 -17 65 -27 81 -26 162 -61 220 -95 29 -17 50 -25
48 -18 -2 6 -33 27 -69 45 -104 54 -291 121 -264 95z"/>
<path d="M2643 828 c-11 -13 -24 -30 -28 -38 -8 -16 -6 -14 34 33 14 15 22 27
19 27 -2 0 -14 -10 -25 -22z"/>
<path d="M89 793 c-13 -16 -12 -17 4 -4 16 13 21 21 13 21 -2 0 -10 -8 -17
-17z"/>
<path d="M2940 791 c0 -6 4 -13 10 -16 6 -3 7 1 4 9 -7 18 -14 21 -14 7z"/>
<path d="M2383 465 c0 -8 4 -12 9 -9 5 3 6 10 3 15 -9 13 -12 11 -12 -6z"/>
</g>
</svg>
